# xmcd
# 
# Track frame offsets:
#     150
#     18462
#     33685
#     49928
#     70126
#     99243
#     118149
#     140572
#     157573
#     175358
# 
# Disc length: 2604
# 
# Revision: 0
# Processed by: cddbd v1.5.2PL0 Copyright (c) Steve Scherf et al.
# Submitted via: BonkEnc v1.0.6
# 
DISCID=830a2a0a
DTITLE=門あさ美 - Seminude
DYEAR=0
DGENRE=JPop
TTITLE0=Blue Moon
TTITLE1=Sunete Gokigen
TTITLE2=Ichidodake Mane
TTITLE3=Nice Middle
TTITLE4=Jigazoh
TTITLE5=Osukini Semete
TTITLE6=Irono Nai Kohzu
TTITLE7=Kimagure Kitten
TTITLE8=Season
TTITLE9=月下美人
EXTD=
EXTT0=
EXTT1=
EXTT2=
EXTT3=
EXTT4=
EXTT5=
EXTT6=
EXTT7=
EXTT8=
EXTT9=
PLAYORDER=
